# xmcd
#
# Track frame offsets:
#	150
#	10675
#	19147
#	27877
#	38430
#	50160
#	62787
#	73010
#	83875
#	93222
#	106285
#	122215
#
# Disc length: 1718 seconds
#
# Revision: 4
# Processed by: cddbd v1.5.2PL0 Copyright (c) Steve Scherf et al.
# Submitted via: EasyCDDAExtractor 10.0.2.1
#
DISCID=9406b40c
DTITLE=LEANDRO and LEONARDO - A CONSTRUÇÃO [CD 199.000.271) ITAIPÚ MUSIC COM. DE
DTITLE=DISCOS LTDA
DYEAR=1983
DGENRE=SERTANEJO
TTITLE0=A CONSTRUÇÃO (BY GILMAR SINISTRO)
TTITLE1=O SONO NÃO CHEGOU (BY GILMAR SINISTRO)
TTITLE2=LUA DE MEL (BY GILMAR SINISTRO)
TTITLE3=DUPLA TRAIÇÃO (BY GILMAR SINISTRO)
TTITLE4=REVOLTA (BY GILMAR SINISTRO)
TTITLE5=MEU QUERIDO PAI (BY GILMAR SINISTRO)
TTITLE6=TRAUMA DO AMOR (BY GILMAR SINISTRO)
TTITLE7=CORAÇÃO REBELDE (BY GILMAR SINISTRO)
TTITLE8=HOJE ACORDEI CHORANDO (BY GILMAR SINISTRO)
TTITLE9=MINHA CRUZ (BY GILMAR SINISTRO)
TTITLE10=ESTA NOITE (BY GILMAR SINISTRO)
TTITLE11=NÃO SOU HOMEM DE COLEÇÃO (BY GILMAR SINISTRO)
EXTD=
EXTT0=
EXTT1=
EXTT2=
EXTT3=
EXTT4=
EXTT5=
EXTT6=
EXTT7=
EXTT8=
EXTT9=
EXTT10=
EXTT11=
PLAYORDER=
